<svg width="210" height="379" viewBox="0 0 210 379" fill="none" xmlns="http://www.w3.org/2000/svg">
<mask id="path-1-outside-1_5_126" maskUnits="userSpaceOnUse" x="-94" y="0" width="304" height="379" fill="black">
<rect fill="white" x="-94" width="304" height="379"/>
<path d="M-90.748 376V3.49997H51.752C77.4186 3.49997 100.085 7.99997 119.752 17C139.752 26 155.419 39.3333 166.752 57C178.085 74.6667 183.752 96.5 183.752 122.5C183.752 147.833 177.919 169.5 166.252 187.5C154.585 205.167 138.919 218.5 119.252 227.5L204.252 376H117.252L25.252 211.5L75.252 241H-13.248V376H-90.748ZM-13.248 173.5H52.252C63.252 173.5 72.752 171.333 80.752 167C88.752 162.667 94.9186 156.667 99.252 149C103.919 141.333 106.252 132.5 106.252 122.5C106.252 112.167 103.919 103.167 99.252 95.5C94.9186 87.8333 88.752 81.8333 80.752 77.5C72.752 73.1667 63.252 71 52.252 71H-13.248V173.5Z"/>
</mask>
<path d="M-90.748 376V3.49997H51.752C77.4186 3.49997 100.085 7.99997 119.752 17C139.752 26 155.419 39.3333 166.752 57C178.085 74.6667 183.752 96.5 183.752 122.5C183.752 147.833 177.919 169.5 166.252 187.5C154.585 205.167 138.919 218.5 119.252 227.5L204.252 376H117.252L25.252 211.5L75.252 241H-13.248V376H-90.748ZM-13.248 173.5H52.252C63.252 173.5 72.752 171.333 80.752 167C88.752 162.667 94.9186 156.667 99.252 149C103.919 141.333 106.252 132.5 106.252 122.5C106.252 112.167 103.919 103.167 99.252 95.5C94.9186 87.8333 88.752 81.8333 80.752 77.5C72.752 73.1667 63.252 71 52.252 71H-13.248V173.5Z" fill="white"/>
<path d="M-90.748 376H-93.748V379H-90.748V376ZM-90.748 3.49997V0.499968H-93.748V3.49997H-90.748ZM119.752 17L118.504 19.7279L118.512 19.7318L118.521 19.7357L119.752 17ZM166.752 57L164.227 58.6199L164.227 58.6199L166.752 57ZM166.252 187.5L168.755 189.153L168.762 189.142L168.769 189.132L166.252 187.5ZM119.252 227.5L118.004 224.772L115.016 226.139L116.648 228.99L119.252 227.5ZM204.252 376V379H209.426L206.856 374.51L204.252 376ZM117.252 376L114.634 377.464L115.492 379H117.252V376ZM25.252 211.5L26.7764 208.916L17.2145 203.275L22.6336 212.964L25.252 211.5ZM75.252 241V244H86.2405L76.7764 238.416L75.252 241ZM-13.248 241V238H-16.248V241H-13.248ZM-13.248 376V379H-10.248V376H-13.248ZM-13.248 173.5H-16.248V176.5H-13.248V173.5ZM80.752 167L82.1808 169.638L82.1808 169.638L80.752 167ZM99.252 149L96.6894 147.44L96.6641 147.482L96.6403 147.524L99.252 149ZM99.252 95.5L96.6403 96.9761L96.6641 97.0184L96.6894 97.0598L99.252 95.5ZM80.752 77.5L79.3231 80.1379L79.3231 80.1379L80.752 77.5ZM-13.248 71V68H-16.248V71H-13.248ZM-90.748 376H-87.748V3.49997H-90.748H-93.748V376H-90.748ZM-90.748 3.49997V6.49997H51.752V3.49997V0.499968H-90.748V3.49997ZM51.752 3.49997V6.49997C77.0672 6.49997 99.295 10.9375 118.504 19.7279L119.752 17L121 14.272C100.876 5.06242 77.77 0.499968 51.752 0.499968V3.49997ZM119.752 17L118.521 19.7357C138.016 28.5084 153.222 41.4654 164.227 58.6199L166.752 57L169.277 55.3801C157.615 37.2013 141.488 23.4916 120.983 14.2642L119.752 17ZM166.752 57L164.227 58.6199C175.184 75.6994 180.752 96.9371 180.752 122.5H183.752H186.752C186.752 96.0629 180.987 73.6339 169.277 55.3801L166.752 57ZM183.752 122.5H180.752C180.752 147.361 175.033 168.437 163.735 185.868L166.252 187.5L168.769 189.132C180.804 170.563 186.752 148.306 186.752 122.5H183.752ZM166.252 187.5L163.749 185.847C152.398 203.034 137.171 216 118.004 224.772L119.252 227.5L120.5 230.228C140.666 221 156.772 207.299 168.755 189.153L166.252 187.5ZM119.252 227.5L116.648 228.99L201.648 377.49L204.252 376L206.856 374.51L121.856 226.01L119.252 227.5ZM204.252 376V373H117.252V376V379H204.252V376ZM117.252 376L119.87 374.536L27.8703 210.036L25.252 211.5L22.6336 212.964L114.634 377.464L117.252 376ZM25.252 211.5L23.7275 214.084L73.7275 243.584L75.252 241L76.7764 238.416L26.7764 208.916L25.252 211.5ZM75.252 241V238H-13.248V241V244H75.252V241ZM-13.248 241H-16.248V376H-13.248H-10.248V241H-13.248ZM-13.248 376V373H-90.748V376V379H-13.248V376ZM-13.248 173.5V176.5H52.252V173.5V170.5H-13.248V173.5ZM52.252 173.5V176.5C63.6473 176.5 73.6592 174.254 82.1808 169.638L80.752 167L79.3231 164.362C71.8447 168.413 62.8566 170.5 52.252 170.5V173.5ZM80.752 167L82.1808 169.638C90.6591 165.045 97.2435 158.65 101.864 150.476L99.252 149L96.6403 147.524C92.5938 154.683 86.8448 160.288 79.3231 164.362L80.752 167ZM99.252 149L101.815 150.56C106.799 142.371 109.252 132.986 109.252 122.5H106.252H103.252C103.252 132.014 101.038 140.296 96.6894 147.44L99.252 149ZM106.252 122.5H109.252C109.252 111.701 106.808 102.144 101.815 93.9401L99.252 95.5L96.6894 97.0598C101.029 104.189 103.252 112.632 103.252 122.5H106.252ZM99.252 95.5L101.864 94.0238C97.2435 85.8496 90.6591 79.4545 82.1808 74.8621L80.752 77.5L79.3231 80.1379C86.8448 84.2121 92.5938 89.817 96.6403 96.9761L99.252 95.5ZM80.752 77.5L82.1808 74.8621C73.6592 70.2462 63.6473 68 52.252 68V71V74C62.8566 74 71.8447 76.0871 79.3231 80.1379L80.752 77.5ZM52.252 71V68H-13.248V71V74H52.252V71ZM-13.248 71H-16.248V173.5H-13.248H-10.248V71H-13.248Z" fill="#ECF2F6" fill-opacity="0.8" mask="url(#path-1-outside-1_5_126)"/>
</svg>
