<svg width="245" height="334" viewBox="0 0 245 334" fill="none" xmlns="http://www.w3.org/2000/svg">
<mask id="path-1-outside-1_5_153" maskUnits="userSpaceOnUse" x="0" y="-45" width="342" height="379" fill="black">
<rect fill="white" y="-45" width="342" height="379"/>
<path d="M5.58984 331L127.59 144.5L5.58984 -41.5H94.5898L192.59 107.5H149.09L246.59 -41.5H335.59L214.09 144.5L335.59 331H246.59L149.09 181.5L192.59 182L94.5898 331H5.58984Z"/>
</mask>
<path d="M5.58984 331L127.59 144.5L5.58984 -41.5H94.5898L192.59 107.5H149.09L246.59 -41.5H335.59L214.09 144.5L335.59 331H246.59L149.09 181.5L192.59 182L94.5898 331H5.58984Z" fill="white"/>
<path d="M5.58984 331L3.07929 329.358L0.0425101 334H5.58984V331ZM127.59 144.5L130.1 146.142L131.176 144.498L130.098 142.855L127.59 144.5ZM5.58984 -41.5V-44.5H0.0343441L3.08131 -39.8547L5.58984 -41.5ZM94.5898 -41.5L97.0963 -43.1486L96.2074 -44.5H94.5898V-41.5ZM192.59 107.5V110.5H198.154L195.096 105.851L192.59 107.5ZM149.09 107.5L146.58 105.857L143.542 110.5H149.09V107.5ZM246.59 -41.5V-44.5H244.968L244.08 -43.1427L246.59 -41.5ZM335.59 -41.5L338.101 -39.8594L341.133 -44.5H335.59V-41.5ZM214.09 144.5L211.578 142.859L210.508 144.498L211.576 146.138L214.09 144.5ZM335.59 331V334H341.125L338.103 329.362L335.59 331ZM246.59 331L244.077 332.639L244.965 334H246.59V331ZM149.09 181.5L149.124 178.5L143.51 178.436L146.577 183.139L149.09 181.5ZM192.59 182L195.096 183.649L198.112 179.063L192.624 179L192.59 182ZM94.5898 331V334H96.2074L97.0963 332.649L94.5898 331ZM5.58984 331L8.1004 332.642L130.1 146.142L127.59 144.5L125.079 142.858L3.07929 329.358L5.58984 331ZM127.59 144.5L130.098 142.855L8.09837 -43.1454L5.58984 -41.5L3.08131 -39.8547L125.081 146.145L127.59 144.5ZM5.58984 -41.5V-38.5H94.5898V-41.5V-44.5H5.58984V-41.5ZM94.5898 -41.5L92.0834 -39.8515L190.083 109.149L192.59 107.5L195.096 105.851L97.0963 -43.1486L94.5898 -41.5ZM192.59 107.5V104.5H149.09V107.5V110.5H192.59V107.5ZM149.09 107.5L151.6 109.143L249.1 -39.8574L246.59 -41.5L244.08 -43.1427L146.58 105.857L149.09 107.5ZM246.59 -41.5V-38.5H335.59V-41.5V-44.5H246.59V-41.5ZM335.59 -41.5L333.078 -43.1407L211.578 142.859L214.09 144.5L216.601 146.141L338.101 -39.8594L335.59 -41.5ZM214.09 144.5L211.576 146.138L333.076 332.638L335.59 331L338.103 329.362L216.603 142.862L214.09 144.5ZM335.59 331V328H246.59V331V334H335.59V331ZM246.59 331L249.103 329.361L151.603 179.861L149.09 181.5L146.577 183.139L244.077 332.639L246.59 331ZM149.09 181.5L149.055 184.5L192.555 185L192.59 182L192.624 179L149.124 178.5L149.09 181.5ZM192.59 182L190.083 180.351L92.0834 329.351L94.5898 331L97.0963 332.649L195.096 183.649L192.59 182ZM94.5898 331V328H5.58984V331V334H94.5898V331Z" fill="#ECF2F6" fill-opacity="0.8" mask="url(#path-1-outside-1_5_153)"/>
</svg>
